<svg width="32" height="32" viewBox="0 0 32 32" fill="none" xmlns="http://www.w3.org/2000/svg">
<rect width="32" height="32" rx="16" fill="black" fill-opacity="0.42"/>
<g clip-path="url(#clip0_1_7)">
<path d="M19.03 8.47001C19.1705 8.61064 19.2493 8.80126 19.2493 9.00001C19.2493 9.19876 19.1705 9.38939 19.03 9.53001L12.56 16L19.03 22.47C19.1037 22.5387 19.1628 22.6215 19.2038 22.7135C19.2448 22.8055 19.2668 22.9048 19.2686 23.0055C19.2704 23.1062 19.2518 23.2062 19.2141 23.2996C19.1764 23.393 19.1203 23.4778 19.049 23.549C18.9778 23.6203 18.893 23.6764 18.7996 23.7141C18.7062 23.7519 18.6062 23.7704 18.5055 23.7686C18.4048 23.7668 18.3055 23.7448 18.2135 23.7038C18.1215 23.6628 18.0387 23.6037 17.97 23.53L10.44 16L17.97 8.47001C18.1106 8.32956 18.3013 8.25067 18.5 8.25067C18.6988 8.25067 18.8894 8.32956 19.03 8.47001Z" fill="white"/>
</g>
<defs>
<clipPath id="clip0_1_7">
<rect width="16" height="16" fill="white" transform="translate(8 8)"/>
</clipPath>
</defs>
</svg>
