<svg width="32" height="32" viewBox="0 0 32 32" fill="none" xmlns="http://www.w3.org/2000/svg">
<rect width="32" height="32" rx="16" fill="black" fill-opacity="0.42"/>
<g clip-path="url(#clip0_1_11)">
<path d="M12.97 8.47001C12.8296 8.61064 12.7507 8.80126 12.7507 9.00001C12.7507 9.19876 12.8296 9.38939 12.97 9.53001L19.44 16L12.97 22.47C12.8963 22.5387 12.8372 22.6215 12.7962 22.7135C12.7552 22.8055 12.7332 22.9048 12.7314 23.0055C12.7296 23.1062 12.7482 23.2062 12.7859 23.2996C12.8236 23.393 12.8797 23.4778 12.951 23.549C13.0222 23.6203 13.107 23.6764 13.2004 23.7141C13.2938 23.7519 13.3938 23.7704 13.4945 23.7686C13.5952 23.7668 13.6945 23.7448 13.7865 23.7038C13.8785 23.6628 13.9613 23.6037 14.03 23.53L21.56 16L14.03 8.47001C13.8894 8.32956 13.6988 8.25067 13.5 8.25067C13.3013 8.25067 13.1106 8.32956 12.97 8.47001Z" fill="white"/>
</g>
<defs>
<clipPath id="clip0_1_11">
<rect width="16" height="16" fill="white" transform="translate(8 8)"/>
</clipPath>
</defs>
</svg>
