<svg width="24" height="25" viewBox="0 0 24 25" fill="none" xmlns="http://www.w3.org/2000/svg">
<rect y="0.59375" width="24" height="24" rx="2" fill="url(#paint0_linear_1_215)" fill-opacity="0.7"/>
<g clip-path="url(#clip0_1_215)">
<path d="M17.793 9.75875C17.6634 9.1142 17.3404 8.52446 16.8672 8.06809C16.3939 7.61172 15.7929 7.31039 15.144 7.20425C14.6565 7.12654 14.1577 7.1626 13.6864 7.30962C13.2152 7.45664 12.7843 7.71063 12.4275 8.05175C12.3114 8.15976 12.1586 8.21981 12 8.21981C11.8414 8.21981 11.6887 8.15976 11.5725 8.05175C10.9801 7.47873 10.1896 7.15605 9.36544 7.15079C8.54125 7.14553 7.74673 7.45809 7.14704 8.0235C6.54735 8.58891 6.18861 9.36368 6.1454 10.1868C6.10219 11.0098 6.37783 11.8179 6.91503 12.443L11.352 17.7305C11.4314 17.825 11.5306 17.9009 11.6424 17.953C11.7543 18.0052 11.8762 18.0322 11.9997 18.0322C12.1231 18.0322 12.245 18.0052 12.3569 17.953C12.4687 17.9009 12.5679 17.825 12.6473 17.7305L17.0843 12.443C17.398 12.0788 17.6249 11.648 17.7477 11.1833C17.8705 10.7185 17.886 10.2319 17.793 9.76025V9.75875Z" fill="white"/>
</g>
<defs>
<linearGradient id="paint0_linear_1_215" x1="0" y1="0.59375" x2="24" y2="24.5938" gradientUnits="userSpaceOnUse">
<stop stop-color="#450AF5"/>
<stop offset="1" stop-color="#C4EFD9"/>
</linearGradient>
<clipPath id="clip0_1_215">
<rect width="12" height="12" fill="white" transform="translate(6 6.59375)"/>
</clipPath>
</defs>
</svg>
