<svg width="131" height="40" viewBox="0 0 131 40" fill="none" xmlns="http://www.w3.org/2000/svg">
<path d="M0.924133 20.1155C0.924133 30.7434 9.70367 39.5229 20.3315 39.5229C30.9594 39.5229 39.7389 30.7434 39.7389 20.1155C39.7389 9.48766 30.9594 0.823639 20.3315 0.823639C9.70367 0.823639 0.924133 9.48766 0.924133 20.1155ZM27.4938 29.1261C22.9885 26.3536 17.2125 25.6605 10.5123 27.1623C8.89503 27.3933 8.66399 25.0829 10.0502 24.8519C17.4435 23.1191 23.6816 23.9277 28.7645 27.0467C30.0352 27.8554 28.7645 29.8192 27.4938 29.1261ZM29.4576 23.9277C24.2592 20.6931 16.2883 19.769 10.1658 21.6173C8.20191 22.1949 7.50879 19.1914 9.35711 18.7293C16.4039 16.6499 25.0679 17.6896 31.0749 21.3862C32.6922 22.4259 31.0749 24.9674 29.4576 23.9277ZM9.24159 15.7258C7.27775 16.4189 6.00703 13.0688 8.20191 12.2601C15.0176 10.1808 26.5696 10.5273 33.7319 14.8016C35.6957 15.8413 33.8474 19.0758 31.768 17.9206C25.53 14.224 15.1331 13.8774 9.24159 15.7258ZM53.0238 26.2381C51.0599 26.2381 49.2116 25.545 47.5943 23.9277C47.4788 23.9277 47.4788 24.0432 47.4788 24.0432L45.6305 26.2381C45.515 26.3536 45.515 26.4691 45.6305 26.5847C47.7098 28.433 50.2513 29.3571 53.0238 29.3571C56.9515 29.3571 59.3774 27.1623 59.3774 23.9277C59.3774 21.1552 57.6446 19.6534 53.6014 18.6138C50.2513 17.8051 49.6737 17.2275 49.6737 16.0723C49.6737 14.9171 50.8289 14.224 52.3307 14.224C53.8324 14.224 55.2187 14.8016 56.8359 15.9568C56.8359 15.9568 56.9515 16.0723 57.067 16.0723C57.1825 16.0723 57.1825 15.9568 57.1825 15.9568L58.7998 13.6464C58.9153 13.5309 58.9153 13.5309 58.7998 13.4153C56.9515 11.9136 54.7566 11.1049 52.3307 11.1049C48.7495 11.1049 46.2081 13.2998 46.2081 16.4189C46.2081 19.769 48.5185 20.8086 52.2151 21.7328C55.4497 22.4259 55.9118 23.1191 55.9118 24.2743C55.9118 25.545 54.7566 26.2381 53.0238 26.2381ZM63.9982 17.343V15.8413C63.9982 15.7258 63.8827 15.6102 63.7672 15.6102H60.7636C60.6481 15.6102 60.5326 15.7258 60.5326 15.8413V32.8228C60.5326 32.9383 60.6481 33.0538 60.7636 33.0538H63.7672C63.8827 33.0538 63.9982 32.9383 63.9982 32.8228V27.5088C65.1534 28.7795 66.4241 29.3571 68.1569 29.3571C71.276 29.3571 74.395 26.9312 74.395 22.3104C74.395 17.6896 71.276 15.3792 68.1569 15.3792C66.4241 15.3792 65.1534 15.9568 63.9982 17.343ZM67.4638 26.3536C65.3844 26.3536 63.8827 24.6208 63.8827 22.3104C63.8827 20 65.3844 18.3827 67.4638 18.3827C69.5432 18.3827 70.9294 20 70.9294 22.3104C70.9294 24.6208 69.5432 26.3536 67.4638 26.3536ZM75.3192 22.4259C75.3192 26.3536 78.4382 29.3571 82.4814 29.3571C86.5247 29.3571 89.6437 26.2381 89.6437 22.3104C89.6437 18.3827 86.6402 15.3792 82.597 15.3792C78.5538 15.3792 75.3192 18.4982 75.3192 22.4259ZM78.7848 22.3104C78.7848 20 80.2866 18.3827 82.4814 18.3827C84.6763 18.3827 86.2936 20.1155 86.2936 22.4259C86.2936 24.7363 84.7919 26.3536 82.597 26.3536C80.4021 26.3536 78.7848 24.6208 78.7848 22.3104ZM94.9576 15.6102V12.2601C94.9576 12.1446 94.9576 12.0291 94.8421 12.0291H91.8386C91.7231 12.0291 91.6076 12.1446 91.6076 12.2601V15.6102H90.1058C89.9903 15.6102 89.8747 15.7258 89.8747 15.8413V18.3827C89.8747 18.4982 89.9903 18.6138 90.1058 18.6138H91.6076V25.3139C91.6076 27.9709 92.8783 29.3571 95.5352 29.3571C96.5749 29.3571 97.6146 29.1261 98.4232 28.664C98.5388 28.664 98.5388 28.5485 98.5388 28.433V26.0071C98.5388 25.8915 98.5388 25.776 98.4232 25.776H98.1922C97.6146 26.1226 96.9215 26.2381 96.3439 26.2381C95.4197 26.2381 94.9576 25.776 94.9576 24.8519V18.6138H98.4232C98.5388 18.6138 98.6543 18.4982 98.6543 18.3827V15.8413C98.6543 15.7258 98.5388 15.6102 98.4232 15.6102H94.9576ZM109.86 15.2637C109.86 13.993 110.322 13.5309 111.362 13.5309C111.939 13.5309 112.517 13.5309 113.094 13.7619H113.21C113.21 13.7619 113.325 13.6464 113.325 13.5309V11.1049C113.325 10.9894 113.325 10.8739 113.21 10.8739C112.632 10.6429 111.824 10.5273 110.668 10.5273C107.896 10.5273 106.51 12.1446 106.51 15.0326V15.6102H105.008C104.892 15.6102 104.777 15.7258 104.777 15.8413V18.3827C104.777 18.4982 104.892 18.6138 105.008 18.6138H106.51V28.8951C106.51 29.0106 106.625 29.1261 106.741 29.1261H109.744C109.86 29.1261 109.86 29.0106 109.86 28.8951V18.6138H112.748L117.022 28.8951C116.56 29.9348 116.098 30.1658 115.405 30.1658C114.827 30.1658 114.25 30.0503 113.672 29.7037H113.556L113.441 29.8192L112.401 32.0141C112.401 32.1296 112.401 32.3607 112.517 32.3607C113.556 32.9383 114.481 33.1693 115.636 33.1693C117.831 33.1693 119.101 32.1296 120.141 29.3571L125.339 15.9568V15.7258C125.339 15.6102 125.224 15.6102 125.108 15.6102H121.989C121.874 15.6102 121.874 15.7258 121.874 15.8413L118.639 24.8519L115.174 15.8413C115.174 15.7258 115.058 15.6102 114.943 15.6102H109.86V15.2637ZM100.272 15.6102C100.156 15.6102 100.041 15.7258 100.041 15.8413V28.8951C100.041 29.0106 100.156 29.1261 100.272 29.1261H103.275C103.391 29.1261 103.391 29.0106 103.391 28.8951V15.8413C103.391 15.7258 103.391 15.6102 103.275 15.6102H100.272ZM99.5784 11.7981C99.5784 12.9533 100.618 13.993 101.773 13.993C102.929 13.993 103.853 12.9533 103.853 11.7981C103.853 10.6429 102.929 9.7187 101.773 9.7187C100.618 9.7187 99.5784 10.6429 99.5784 11.7981ZM127.881 19.769C129.036 19.769 130.076 18.8448 130.076 17.6896C130.076 16.5344 129.036 15.6102 127.881 15.6102C126.726 15.6102 125.802 16.5344 125.802 17.6896C125.802 18.8448 126.726 19.769 127.881 19.769ZM127.881 15.8413C128.921 15.8413 129.845 16.6499 129.845 17.6896C129.845 18.7293 128.921 19.5379 127.881 19.5379C126.841 19.5379 126.033 18.7293 126.033 17.6896C126.033 16.6499 126.841 15.8413 127.881 15.8413ZM128.343 17.9206C128.69 17.8051 128.921 17.5741 128.921 17.2275C128.921 16.7654 128.459 16.5344 127.996 16.5344H127.072V18.7293H127.534V18.0362H127.996L128.459 18.7293H129.036L128.343 17.9206ZM127.996 16.881C128.227 16.881 128.459 16.9965 128.459 17.2275C128.459 17.4586 128.227 17.5741 127.996 17.5741H127.534V16.881H127.996Z" fill="white"/>
</svg>
