<svg width="22" height="23" viewBox="0 0 22 23" fill="none" xmlns="http://www.w3.org/2000/svg">
<path d="M9.53298 0.872765C4.35298 0.872765 0.125977 5.01276 0.125977 10.1518C0.125977 15.2908 4.35198 19.4308 9.53298 19.4308C11.767 19.4308 13.823 18.6608 15.44 17.3728L19.793 21.7258C19.8852 21.8213 19.9956 21.8975 20.1176 21.9499C20.2396 22.0023 20.3708 22.0299 20.5036 22.031C20.6364 22.0322 20.768 22.0069 20.8909 21.9566C21.0138 21.9063 21.1255 21.8321 21.2194 21.7382C21.3133 21.6443 21.3875 21.5326 21.4378 21.4097C21.4881 21.2868 21.5134 21.1551 21.5122 21.0224C21.5111 20.8896 21.4835 20.7584 21.4311 20.6364C21.3787 20.5144 21.3025 20.404 21.207 20.3118L16.863 15.9678C18.2079 14.3281 18.942 12.2725 18.94 10.1518C18.94 5.01177 14.714 0.871765 9.53298 0.871765V0.872765ZM2.12598 10.1518C2.12598 6.14576 5.42798 2.87177 9.53298 2.87177C13.638 2.87177 16.94 6.14576 16.94 10.1518C16.94 14.1578 13.638 17.4308 9.53298 17.4308C5.42798 17.4308 2.12598 14.1588 2.12598 10.1518Z" fill="white" fill-opacity="0.7"/>
</svg>
